<svg id="visual" viewBox="0 0 1600 1100" width="1600" height="1100" xmlns="http://www.w3.org/2000/svg" xmlns:xlink="http://www.w3.org/1999/xlink" version="1.1"><rect x="0" y="0" width="1600" height="1100" fill="#edeff4"></rect><path d="M0 321L229 207L457 269L686 288L914 195L1143 297L1371 283L1600 273L1600 0L1371 0L1143 0L914 0L686 0L457 0L229 0L0 0Z" fill="#556189"></path><path d="M0 234L229 121L457 199L686 250L914 232L1143 164L1371 240L1600 236L1600 0L1371 0L1143 0L914 0L686 0L457 0L229 0L0 0Z" fill="#6c76a0"></path><path d="M0 78L229 94L457 113L686 53L914 107L1143 108L1371 53L1600 114L1600 0L1371 0L1143 0L914 0L686 0L457 0L229 0L0 0Z" fill="#838cb8"></path></svg>