<svg id="visual" viewBox="0 0 1600 750" width="1600" height="750" xmlns="http://www.w3.org/2000/svg" xmlns:xlink="http://www.w3.org/1999/xlink" version="1.1"><rect x="0" y="0" width="1600" height="750" fill="#383D5D"></rect><path d="M0 527L229 641L457 579L686 560L914 653L1143 551L1371 565L1600 575L1600 851L1371 851L1143 851L914 851L686 851L457 851L229 851L0 851Z" fill="#556189"></path><path d="M0 614L229 727L457 649L686 598L914 616L1143 684L1371 608L1600 612L1600 851L1371 851L1143 851L914 851L686 851L457 851L229 851L0 851Z" fill="#6c76a0"></path><path d="M0 770L229 754L457 735L686 795L914 741L1143 740L1371 795L1600 734L1600 851L1371 851L1143 851L914 851L686 851L457 851L229 851L0 851Z" fill="#838cb8"></path></svg>